<?xml version="1.0" encoding="utf-8" standalone="no"?>
<!DOCTYPE svg PUBLIC "-//W3C//DTD SVG 1.1//EN"
  "http://www.w3.org/Graphics/SVG/1.1/DTD/svg11.dtd">
<svg xmlns:xlink="http://www.w3.org/1999/xlink" width="460.8pt" height="345.6pt" viewBox="0 0 460.8 345.6" xmlns="http://www.w3.org/2000/svg" version="1.1">
 <metadata>
  <rdf:RDF xmlns:dc="http://purl.org/dc/elements/1.1/" xmlns:cc="http://creativecommons.org/ns#" xmlns:rdf="http://www.w3.org/1999/02/22-rdf-syntax-ns#">
   <cc:Work>
    <dc:type rdf:resource="http://purl.org/dc/dcmitype/StillImage"/>
    <dc:date>2023-09-23T03:26:48.658249</dc:date>
    <dc:format>image/svg+xml</dc:format>
    <dc:creator>
     <cc:Agent>
      <dc:title>Matplotlib v3.7.3, https://matplotlib.org/</dc:title>
     </cc:Agent>
    </dc:creator>
   </cc:Work>
  </rdf:RDF>
 </metadata>
 <defs>
  <style type="text/css">*{stroke-linejoin: round; stroke-linecap: butt}</style>
 </defs>
 <g id="figure_1">
  <g id="patch_1">
   <path d="M 0 345.6 
L 460.8 345.6 
L 460.8 0 
L 0 0 
z
" style="fill: #ffffff"/>
  </g>
  <g id="axes_1">
   <g id="patch_2">
    <path d="M 57.6 307.584 
L 414.72 307.584 
L 414.72 41.472 
L 57.6 41.472 
z
" style="fill: #ffffff"/>
   </g>
   <g id="patch_3">
    <path d="M 72.48 307.584 
L 102.24 307.584 
L 102.24 307.584 
L 72.48 307.584 
z
" clip-path="url(#pa95759eca6)" style="fill: #1f77b4"/>
   </g>
   <g id="patch_4">
    <path d="M 132 307.584 
L 161.76 307.584 
L 161.76 220.318945 
L 132 220.318945 
z
" clip-path="url(#pa95759eca6)" style="fill: #1f77b4"/>
   </g>
   <g id="patch_5">
    <path d="M 191.52 307.584 
L 221.28 307.584 
L 221.28 254.20378 
L 191.52 254.20378 
z
" clip-path="url(#pa95759eca6)" style="fill: #1f77b4"/>
   </g>
   <g id="patch_6">
    <path d="M 251.04 307.584 
L 280.8 307.584 
L 280.8 272.461363 
L 251.04 272.461363 
z
" clip-path="url(#pa95759eca6)" style="fill: #1f77b4"/>
   </g>
   <g id="patch_7">
    <path d="M 310.56 307.584 
L 340.32 307.584 
L 340.32 270.140484 
L 310.56 270.140484 
z
" clip-path="url(#pa95759eca6)" style="fill: #1f77b4"/>
   </g>
   <g id="patch_8">
    <path d="M 370.08 307.584 
L 399.84 307.584 
L 399.84 267.355429 
L 370.08 267.355429 
z
" clip-path="url(#pa95759eca6)" style="fill: #1f77b4"/>
   </g>
   <g id="patch_9">
    <path d="M 72.48 307.584 
L 102.24 307.584 
L 102.24 307.584 
L 72.48 307.584 
z
" clip-path="url(#pa95759eca6)" style="fill: #ff7f0e"/>
   </g>
   <g id="patch_10">
    <path d="M 132 220.318945 
L 161.76 220.318945 
L 161.76 177.305319 
L 132 177.305319 
z
" clip-path="url(#pa95759eca6)" style="fill: #ff7f0e"/>
   </g>
   <g id="patch_11">
    <path d="M 191.52 254.20378 
L 221.28 254.20378 
L 221.28 179.007297 
L 191.52 179.007297 
z
" clip-path="url(#pa95759eca6)" style="fill: #ff7f0e"/>
   </g>
   <g id="patch_12">
    <path d="M 251.04 272.461363 
L 280.8 272.461363 
L 280.8 227.436308 
L 251.04 227.436308 
z
" clip-path="url(#pa95759eca6)" style="fill: #ff7f0e"/>
   </g>
   <g id="patch_13">
    <path d="M 310.56 270.140484 
L 340.32 270.140484 
L 340.32 222.949275 
L 310.56 222.949275 
z
" clip-path="url(#pa95759eca6)" style="fill: #ff7f0e"/>
   </g>
   <g id="patch_14">
    <path d="M 370.08 267.355429 
L 399.84 267.355429 
L 399.84 224.341802 
L 370.08 224.341802 
z
" clip-path="url(#pa95759eca6)" style="fill: #ff7f0e"/>
   </g>
   <g id="patch_15">
    <path d="M 72.48 307.584 
L 102.24 307.584 
L 102.24 307.584 
L 72.48 307.584 
z
" clip-path="url(#pa95759eca6)" style="fill: #2ca02c"/>
   </g>
   <g id="patch_16">
    <path d="M 132 177.305319 
L 161.76 177.305319 
L 161.76 139.088176 
L 132 139.088176 
z
" clip-path="url(#pa95759eca6)" style="fill: #2ca02c"/>
   </g>
   <g id="patch_17">
    <path d="M 191.52 179.007297 
L 221.28 179.007297 
L 221.28 121.60422 
L 191.52 121.60422 
z
" clip-path="url(#pa95759eca6)" style="fill: #2ca02c"/>
   </g>
   <g id="patch_18">
    <path d="M 251.04 227.436308 
L 280.8 227.436308 
L 280.8 172.508835 
L 251.04 172.508835 
z
" clip-path="url(#pa95759eca6)" style="fill: #2ca02c"/>
   </g>
   <g id="patch_19">
    <path d="M 310.56 222.949275 
L 340.32 222.949275 
L 340.32 170.342681 
L 310.56 170.342681 
z
" clip-path="url(#pa95759eca6)" style="fill: #2ca02c"/>
   </g>
   <g id="patch_20">
    <path d="M 370.08 224.341802 
L 399.84 224.341802 
L 399.84 174.056088 
L 370.08 174.056088 
z
" clip-path="url(#pa95759eca6)" style="fill: #2ca02c"/>
   </g>
   <g id="patch_21">
    <path d="M 72.48 307.584 
L 102.24 307.584 
L 102.24 54.144 
L 72.48 54.144 
z
" clip-path="url(#pa95759eca6)" style="fill: #d62728"/>
   </g>
   <g id="patch_22">
    <path d="M 132 307.584 
L 161.76 307.584 
L 161.76 307.584 
L 132 307.584 
z
" clip-path="url(#pa95759eca6)" style="fill: #d62728"/>
   </g>
   <g id="patch_23">
    <path d="M 191.52 307.584 
L 221.28 307.584 
L 221.28 307.584 
L 191.52 307.584 
z
" clip-path="url(#pa95759eca6)" style="fill: #d62728"/>
   </g>
   <g id="patch_24">
    <path d="M 251.04 307.584 
L 280.8 307.584 
L 280.8 307.584 
L 251.04 307.584 
z
" clip-path="url(#pa95759eca6)" style="fill: #d62728"/>
   </g>
   <g id="patch_25">
    <path d="M 310.56 307.584 
L 340.32 307.584 
L 340.32 307.584 
L 310.56 307.584 
z
" clip-path="url(#pa95759eca6)" style="fill: #d62728"/>
   </g>
   <g id="patch_26">
    <path d="M 370.08 307.584 
L 399.84 307.584 
L 399.84 307.584 
L 370.08 307.584 
z
" clip-path="url(#pa95759eca6)" style="fill: #d62728"/>
   </g>
   <g id="patch_27">
    <path d="M 72.48 307.584 
L 102.24 307.584 
L 102.24 307.584 
L 72.48 307.584 
z
" clip-path="url(#pa95759eca6)" style="fill: #9467bd"/>
   </g>
   <g id="patch_28">
    <path d="M 132 139.088176 
L 161.76 139.088176 
L 161.76 94.527297 
L 132 94.527297 
z
" clip-path="url(#pa95759eca6)" style="fill: #9467bd"/>
   </g>
   <g id="patch_29">
    <path d="M 191.52 121.60422 
L 221.28 121.60422 
L 221.28 88.493011 
L 191.52 88.493011 
z
" clip-path="url(#pa95759eca6)" style="fill: #9467bd"/>
   </g>
   <g id="patch_30">
    <path d="M 251.04 172.508835 
L 280.8 172.508835 
L 280.8 111.856527 
L 251.04 111.856527 
z
" clip-path="url(#pa95759eca6)" style="fill: #9467bd"/>
   </g>
   <g id="patch_31">
    <path d="M 310.56 170.342681 
L 340.32 170.342681 
L 340.32 111.547077 
L 310.56 111.547077 
z
" clip-path="url(#pa95759eca6)" style="fill: #9467bd"/>
   </g>
   <g id="patch_32">
    <path d="M 370.08 174.056088 
L 399.84 174.056088 
L 399.84 117.736088 
L 370.08 117.736088 
z
" clip-path="url(#pa95759eca6)" style="fill: #9467bd"/>
   </g>
   <g id="patch_33">
    <path d="M 72.48 307.584 
L 102.24 307.584 
L 102.24 307.584 
L 72.48 307.584 
z
" clip-path="url(#pa95759eca6)" style="fill: #8c564b"/>
   </g>
   <g id="patch_34">
    <path d="M 132 94.527297 
L 161.76 94.527297 
L 161.76 54.144 
L 132 54.144 
z
" clip-path="url(#pa95759eca6)" style="fill: #8c564b"/>
   </g>
   <g id="patch_35">
    <path d="M 191.52 88.493011 
L 221.28 88.493011 
L 221.28 54.144 
L 191.52 54.144 
z
" clip-path="url(#pa95759eca6)" style="fill: #8c564b"/>
   </g>
   <g id="patch_36">
    <path d="M 251.04 111.856527 
L 280.8 111.856527 
L 280.8 54.144 
L 251.04 54.144 
z
" clip-path="url(#pa95759eca6)" style="fill: #8c564b"/>
   </g>
   <g id="patch_37">
    <path d="M 310.56 111.547077 
L 340.32 111.547077 
L 340.32 54.144 
L 310.56 54.144 
z
" clip-path="url(#pa95759eca6)" style="fill: #8c564b"/>
   </g>
   <g id="patch_38">
    <path d="M 370.08 117.736088 
L 399.84 117.736088 
L 399.84 54.144 
L 370.08 54.144 
z
" clip-path="url(#pa95759eca6)" style="fill: #8c564b"/>
   </g>
   <g id="matplotlib.axis_1">
    <g id="xtick_1">
     <g id="line2d_1">
      <defs>
       <path id="m5521404c5e" d="M 0 0 
L 0 3.5 
" style="stroke: #000000; stroke-width: 0.8"/>
      </defs>
      <g>
       <use xlink:href="#m5521404c5e" x="87.36" y="307.584" style="stroke: #000000; stroke-width: 0.8"/>
      </g>
     </g>
     <g id="text_1">
      <!-- 0 -->
      <g transform="translate(90.119375 320.9465) rotate(-90) scale(0.1 -0.1)">
       <defs>
        <path id="DejaVuSans-30" d="M 2034 4250 
Q 1547 4250 1301 3770 
Q 1056 3291 1056 2328 
Q 1056 1369 1301 889 
Q 1547 409 2034 409 
Q 2525 409 2770 889 
Q 3016 1369 3016 2328 
Q 3016 3291 2770 3770 
Q 2525 4250 2034 4250 
z
M 2034 4750 
Q 2819 4750 3233 4129 
Q 3647 3509 3647 2328 
Q 3647 1150 3233 529 
Q 2819 -91 2034 -91 
Q 1250 -91 836 529 
Q 422 1150 422 2328 
Q 422 3509 836 4129 
Q 1250 4750 2034 4750 
z
" transform="scale(0.015625)"/>
       </defs>
       <use xlink:href="#DejaVuSans-30"/>
      </g>
     </g>
    </g>
    <g id="xtick_2">
     <g id="line2d_2">
      <g>
       <use xlink:href="#m5521404c5e" x="146.88" y="307.584" style="stroke: #000000; stroke-width: 0.8"/>
      </g>
     </g>
     <g id="text_2">
      <!-- 1 -->
      <g transform="translate(149.639375 320.9465) rotate(-90) scale(0.1 -0.1)">
       <defs>
        <path id="DejaVuSans-31" d="M 794 531 
L 1825 531 
L 1825 4091 
L 703 3866 
L 703 4441 
L 1819 4666 
L 2450 4666 
L 2450 531 
L 3481 531 
L 3481 0 
L 794 0 
L 794 531 
z
" transform="scale(0.015625)"/>
       </defs>
       <use xlink:href="#DejaVuSans-31"/>
      </g>
     </g>
    </g>
    <g id="xtick_3">
     <g id="line2d_3">
      <g>
       <use xlink:href="#m5521404c5e" x="206.4" y="307.584" style="stroke: #000000; stroke-width: 0.8"/>
      </g>
     </g>
     <g id="text_3">
      <!-- 2 -->
      <g transform="translate(209.159375 320.9465) rotate(-90) scale(0.1 -0.1)">
       <defs>
        <path id="DejaVuSans-32" d="M 1228 531 
L 3431 531 
L 3431 0 
L 469 0 
L 469 531 
Q 828 903 1448 1529 
Q 2069 2156 2228 2338 
Q 2531 2678 2651 2914 
Q 2772 3150 2772 3378 
Q 2772 3750 2511 3984 
Q 2250 4219 1831 4219 
Q 1534 4219 1204 4116 
Q 875 4013 500 3803 
L 500 4441 
Q 881 4594 1212 4672 
Q 1544 4750 1819 4750 
Q 2544 4750 2975 4387 
Q 3406 4025 3406 3419 
Q 3406 3131 3298 2873 
Q 3191 2616 2906 2266 
Q 2828 2175 2409 1742 
Q 1991 1309 1228 531 
z
" transform="scale(0.015625)"/>
       </defs>
       <use xlink:href="#DejaVuSans-32"/>
      </g>
     </g>
    </g>
    <g id="xtick_4">
     <g id="line2d_4">
      <g>
       <use xlink:href="#m5521404c5e" x="265.92" y="307.584" style="stroke: #000000; stroke-width: 0.8"/>
      </g>
     </g>
     <g id="text_4">
      <!-- 3 -->
      <g transform="translate(268.679375 320.9465) rotate(-90) scale(0.1 -0.1)">
       <defs>
        <path id="DejaVuSans-33" d="M 2597 2516 
Q 3050 2419 3304 2112 
Q 3559 1806 3559 1356 
Q 3559 666 3084 287 
Q 2609 -91 1734 -91 
Q 1441 -91 1130 -33 
Q 819 25 488 141 
L 488 750 
Q 750 597 1062 519 
Q 1375 441 1716 441 
Q 2309 441 2620 675 
Q 2931 909 2931 1356 
Q 2931 1769 2642 2001 
Q 2353 2234 1838 2234 
L 1294 2234 
L 1294 2753 
L 1863 2753 
Q 2328 2753 2575 2939 
Q 2822 3125 2822 3475 
Q 2822 3834 2567 4026 
Q 2313 4219 1838 4219 
Q 1578 4219 1281 4162 
Q 984 4106 628 3988 
L 628 4550 
Q 988 4650 1302 4700 
Q 1616 4750 1894 4750 
Q 2613 4750 3031 4423 
Q 3450 4097 3450 3541 
Q 3450 3153 3228 2886 
Q 3006 2619 2597 2516 
z
" transform="scale(0.015625)"/>
       </defs>
       <use xlink:href="#DejaVuSans-33"/>
      </g>
     </g>
    </g>
    <g id="xtick_5">
     <g id="line2d_5">
      <g>
       <use xlink:href="#m5521404c5e" x="325.44" y="307.584" style="stroke: #000000; stroke-width: 0.8"/>
      </g>
     </g>
     <g id="text_5">
      <!-- 4 -->
      <g transform="translate(328.199375 320.9465) rotate(-90) scale(0.1 -0.1)">
       <defs>
        <path id="DejaVuSans-34" d="M 2419 4116 
L 825 1625 
L 2419 1625 
L 2419 4116 
z
M 2253 4666 
L 3047 4666 
L 3047 1625 
L 3713 1625 
L 3713 1100 
L 3047 1100 
L 3047 0 
L 2419 0 
L 2419 1100 
L 313 1100 
L 313 1709 
L 2253 4666 
z
" transform="scale(0.015625)"/>
       </defs>
       <use xlink:href="#DejaVuSans-34"/>
      </g>
     </g>
    </g>
    <g id="xtick_6">
     <g id="line2d_6">
      <g>
       <use xlink:href="#m5521404c5e" x="384.96" y="307.584" style="stroke: #000000; stroke-width: 0.8"/>
      </g>
     </g>
     <g id="text_6">
      <!-- 5 -->
      <g transform="translate(387.719375 320.9465) rotate(-90) scale(0.1 -0.1)">
       <defs>
        <path id="DejaVuSans-35" d="M 691 4666 
L 3169 4666 
L 3169 4134 
L 1269 4134 
L 1269 2991 
Q 1406 3038 1543 3061 
Q 1681 3084 1819 3084 
Q 2600 3084 3056 2656 
Q 3513 2228 3513 1497 
Q 3513 744 3044 326 
Q 2575 -91 1722 -91 
Q 1428 -91 1123 -41 
Q 819 9 494 109 
L 494 744 
Q 775 591 1075 516 
Q 1375 441 1709 441 
Q 2250 441 2565 725 
Q 2881 1009 2881 1497 
Q 2881 1984 2565 2268 
Q 2250 2553 1709 2553 
Q 1456 2553 1204 2497 
Q 953 2441 691 2322 
L 691 4666 
z
" transform="scale(0.015625)"/>
       </defs>
       <use xlink:href="#DejaVuSans-35"/>
      </g>
     </g>
    </g>
   </g>
   <g id="matplotlib.axis_2">
    <g id="ytick_1">
     <g id="line2d_7">
      <defs>
       <path id="m69a10759f7" d="M 0 0 
L -3.5 0 
" style="stroke: #000000; stroke-width: 0.8"/>
      </defs>
      <g>
       <use xlink:href="#m69a10759f7" x="57.6" y="307.584" style="stroke: #000000; stroke-width: 0.8"/>
      </g>
     </g>
     <g id="text_7">
      <!-- 0 -->
      <g transform="translate(44.2375 311.383219) scale(0.1 -0.1)">
       <use xlink:href="#DejaVuSans-30"/>
      </g>
     </g>
    </g>
    <g id="ytick_2">
     <g id="line2d_8">
      <g>
       <use xlink:href="#m69a10759f7" x="57.6" y="276.638945" style="stroke: #000000; stroke-width: 0.8"/>
      </g>
     </g>
     <g id="text_8">
      <!-- 200 -->
      <g transform="translate(31.5125 280.438164) scale(0.1 -0.1)">
       <use xlink:href="#DejaVuSans-32"/>
       <use xlink:href="#DejaVuSans-30" x="63.623047"/>
       <use xlink:href="#DejaVuSans-30" x="127.246094"/>
      </g>
     </g>
    </g>
    <g id="ytick_3">
     <g id="line2d_9">
      <g>
       <use xlink:href="#m69a10759f7" x="57.6" y="245.69389" style="stroke: #000000; stroke-width: 0.8"/>
      </g>
     </g>
     <g id="text_9">
      <!-- 400 -->
      <g transform="translate(31.5125 249.493109) scale(0.1 -0.1)">
       <use xlink:href="#DejaVuSans-34"/>
       <use xlink:href="#DejaVuSans-30" x="63.623047"/>
       <use xlink:href="#DejaVuSans-30" x="127.246094"/>
      </g>
     </g>
    </g>
    <g id="ytick_4">
     <g id="line2d_10">
      <g>
       <use xlink:href="#m69a10759f7" x="57.6" y="214.748835" style="stroke: #000000; stroke-width: 0.8"/>
      </g>
     </g>
     <g id="text_10">
      <!-- 600 -->
      <g transform="translate(31.5125 218.548054) scale(0.1 -0.1)">
       <defs>
        <path id="DejaVuSans-36" d="M 2113 2584 
Q 1688 2584 1439 2293 
Q 1191 2003 1191 1497 
Q 1191 994 1439 701 
Q 1688 409 2113 409 
Q 2538 409 2786 701 
Q 3034 994 3034 1497 
Q 3034 2003 2786 2293 
Q 2538 2584 2113 2584 
z
M 3366 4563 
L 3366 3988 
Q 3128 4100 2886 4159 
Q 2644 4219 2406 4219 
Q 1781 4219 1451 3797 
Q 1122 3375 1075 2522 
Q 1259 2794 1537 2939 
Q 1816 3084 2150 3084 
Q 2853 3084 3261 2657 
Q 3669 2231 3669 1497 
Q 3669 778 3244 343 
Q 2819 -91 2113 -91 
Q 1303 -91 875 529 
Q 447 1150 447 2328 
Q 447 3434 972 4092 
Q 1497 4750 2381 4750 
Q 2619 4750 2861 4703 
Q 3103 4656 3366 4563 
z
" transform="scale(0.015625)"/>
       </defs>
       <use xlink:href="#DejaVuSans-36"/>
       <use xlink:href="#DejaVuSans-30" x="63.623047"/>
       <use xlink:href="#DejaVuSans-30" x="127.246094"/>
      </g>
     </g>
    </g>
    <g id="ytick_5">
     <g id="line2d_11">
      <g>
       <use xlink:href="#m69a10759f7" x="57.6" y="183.80378" style="stroke: #000000; stroke-width: 0.8"/>
      </g>
     </g>
     <g id="text_11">
      <!-- 800 -->
      <g transform="translate(31.5125 187.602999) scale(0.1 -0.1)">
       <defs>
        <path id="DejaVuSans-38" d="M 2034 2216 
Q 1584 2216 1326 1975 
Q 1069 1734 1069 1313 
Q 1069 891 1326 650 
Q 1584 409 2034 409 
Q 2484 409 2743 651 
Q 3003 894 3003 1313 
Q 3003 1734 2745 1975 
Q 2488 2216 2034 2216 
z
M 1403 2484 
Q 997 2584 770 2862 
Q 544 3141 544 3541 
Q 544 4100 942 4425 
Q 1341 4750 2034 4750 
Q 2731 4750 3128 4425 
Q 3525 4100 3525 3541 
Q 3525 3141 3298 2862 
Q 3072 2584 2669 2484 
Q 3125 2378 3379 2068 
Q 3634 1759 3634 1313 
Q 3634 634 3220 271 
Q 2806 -91 2034 -91 
Q 1263 -91 848 271 
Q 434 634 434 1313 
Q 434 1759 690 2068 
Q 947 2378 1403 2484 
z
M 1172 3481 
Q 1172 3119 1398 2916 
Q 1625 2713 2034 2713 
Q 2441 2713 2670 2916 
Q 2900 3119 2900 3481 
Q 2900 3844 2670 4047 
Q 2441 4250 2034 4250 
Q 1625 4250 1398 4047 
Q 1172 3844 1172 3481 
z
" transform="scale(0.015625)"/>
       </defs>
       <use xlink:href="#DejaVuSans-38"/>
       <use xlink:href="#DejaVuSans-30" x="63.623047"/>
       <use xlink:href="#DejaVuSans-30" x="127.246094"/>
      </g>
     </g>
    </g>
    <g id="ytick_6">
     <g id="line2d_12">
      <g>
       <use xlink:href="#m69a10759f7" x="57.6" y="152.858725" style="stroke: #000000; stroke-width: 0.8"/>
      </g>
     </g>
     <g id="text_12">
      <!-- 1000 -->
      <g transform="translate(25.15 156.657944) scale(0.1 -0.1)">
       <use xlink:href="#DejaVuSans-31"/>
       <use xlink:href="#DejaVuSans-30" x="63.623047"/>
       <use xlink:href="#DejaVuSans-30" x="127.246094"/>
       <use xlink:href="#DejaVuSans-30" x="190.869141"/>
      </g>
     </g>
    </g>
    <g id="ytick_7">
     <g id="line2d_13">
      <g>
       <use xlink:href="#m69a10759f7" x="57.6" y="121.91367" style="stroke: #000000; stroke-width: 0.8"/>
      </g>
     </g>
     <g id="text_13">
      <!-- 1200 -->
      <g transform="translate(25.15 125.712889) scale(0.1 -0.1)">
       <use xlink:href="#DejaVuSans-31"/>
       <use xlink:href="#DejaVuSans-32" x="63.623047"/>
       <use xlink:href="#DejaVuSans-30" x="127.246094"/>
       <use xlink:href="#DejaVuSans-30" x="190.869141"/>
      </g>
     </g>
    </g>
    <g id="ytick_8">
     <g id="line2d_14">
      <g>
       <use xlink:href="#m69a10759f7" x="57.6" y="90.968615" style="stroke: #000000; stroke-width: 0.8"/>
      </g>
     </g>
     <g id="text_14">
      <!-- 1400 -->
      <g transform="translate(25.15 94.767834) scale(0.1 -0.1)">
       <use xlink:href="#DejaVuSans-31"/>
       <use xlink:href="#DejaVuSans-34" x="63.623047"/>
       <use xlink:href="#DejaVuSans-30" x="127.246094"/>
       <use xlink:href="#DejaVuSans-30" x="190.869141"/>
      </g>
     </g>
    </g>
    <g id="ytick_9">
     <g id="line2d_15">
      <g>
       <use xlink:href="#m69a10759f7" x="57.6" y="60.02356" style="stroke: #000000; stroke-width: 0.8"/>
      </g>
     </g>
     <g id="text_15">
      <!-- 1600 -->
      <g transform="translate(25.15 63.822779) scale(0.1 -0.1)">
       <use xlink:href="#DejaVuSans-31"/>
       <use xlink:href="#DejaVuSans-36" x="63.623047"/>
       <use xlink:href="#DejaVuSans-30" x="127.246094"/>
       <use xlink:href="#DejaVuSans-30" x="190.869141"/>
      </g>
     </g>
    </g>
   </g>
   <g id="patch_39">
    <path d="M 57.6 307.584 
L 57.6 41.472 
" style="fill: none; stroke: #000000; stroke-width: 0.8; stroke-linejoin: miter; stroke-linecap: square"/>
   </g>
   <g id="patch_40">
    <path d="M 414.72 307.584 
L 414.72 41.472 
" style="fill: none; stroke: #000000; stroke-width: 0.8; stroke-linejoin: miter; stroke-linecap: square"/>
   </g>
   <g id="patch_41">
    <path d="M 57.6 307.584 
L 414.72 307.584 
" style="fill: none; stroke: #000000; stroke-width: 0.8; stroke-linejoin: miter; stroke-linecap: square"/>
   </g>
   <g id="patch_42">
    <path d="M 57.6 41.472 
L 414.72 41.472 
" style="fill: none; stroke: #000000; stroke-width: 0.8; stroke-linejoin: miter; stroke-linecap: square"/>
   </g>
   <g id="legend_1">
    <g id="patch_43">
     <path d="M 64.6 137.54075 
L 102.9625 137.54075 
Q 104.9625 137.54075 104.9625 135.54075 
L 104.9625 48.472 
Q 104.9625 46.472 102.9625 46.472 
L 64.6 46.472 
Q 62.6 46.472 62.6 48.472 
L 62.6 135.54075 
Q 62.6 137.54075 64.6 137.54075 
z
" style="fill: #ffffff; opacity: 0.8; stroke: #cccccc; stroke-linejoin: miter"/>
    </g>
    <g id="patch_44">
     <path d="M 66.6 58.070438 
L 86.6 58.070438 
L 86.6 51.070438 
L 66.6 51.070438 
z
" style="fill: #1f77b4"/>
    </g>
    <g id="text_16">
     <!-- 0 -->
     <g transform="translate(94.6 58.070438) scale(0.1 -0.1)">
      <use xlink:href="#DejaVuSans-30"/>
     </g>
    </g>
    <g id="patch_45">
     <path d="M 66.6 72.748563 
L 86.6 72.748563 
L 86.6 65.748563 
L 66.6 65.748563 
z
" style="fill: #ff7f0e"/>
    </g>
    <g id="text_17">
     <!-- 1 -->
     <g transform="translate(94.6 72.748563) scale(0.1 -0.1)">
      <use xlink:href="#DejaVuSans-31"/>
     </g>
    </g>
    <g id="patch_46">
     <path d="M 66.6 87.426688 
L 86.6 87.426688 
L 86.6 80.426688 
L 66.6 80.426688 
z
" style="fill: #2ca02c"/>
    </g>
    <g id="text_18">
     <!-- 2 -->
     <g transform="translate(94.6 87.426688) scale(0.1 -0.1)">
      <use xlink:href="#DejaVuSans-32"/>
     </g>
    </g>
    <g id="patch_47">
     <path d="M 66.6 102.104813 
L 86.6 102.104813 
L 86.6 95.104813 
L 66.6 95.104813 
z
" style="fill: #d62728"/>
    </g>
    <g id="text_19">
     <!-- 3 -->
     <g transform="translate(94.6 102.104813) scale(0.1 -0.1)">
      <use xlink:href="#DejaVuSans-33"/>
     </g>
    </g>
    <g id="patch_48">
     <path d="M 66.6 116.782938 
L 86.6 116.782938 
L 86.6 109.782938 
L 66.6 109.782938 
z
" style="fill: #9467bd"/>
    </g>
    <g id="text_20">
     <!-- 4 -->
     <g transform="translate(94.6 116.782938) scale(0.1 -0.1)">
      <use xlink:href="#DejaVuSans-34"/>
     </g>
    </g>
    <g id="patch_49">
     <path d="M 66.6 131.461063 
L 86.6 131.461063 
L 86.6 124.461063 
L 66.6 124.461063 
z
" style="fill: #8c564b"/>
    </g>
    <g id="text_21">
     <!-- 5 -->
     <g transform="translate(94.6 131.461063) scale(0.1 -0.1)">
      <use xlink:href="#DejaVuSans-35"/>
     </g>
    </g>
   </g>
  </g>
 </g>
 <defs>
  <clipPath id="pa95759eca6">
   <rect x="57.6" y="41.472" width="357.12" height="266.112"/>
  </clipPath>
 </defs>
</svg>
