<?xml version="1.0" encoding="utf-8" standalone="no"?>
<!DOCTYPE svg PUBLIC "-//W3C//DTD SVG 1.1//EN"
  "http://www.w3.org/Graphics/SVG/1.1/DTD/svg11.dtd">
<svg xmlns:xlink="http://www.w3.org/1999/xlink" width="460.8pt" height="345.6pt" viewBox="0 0 460.8 345.6" xmlns="http://www.w3.org/2000/svg" version="1.1">
 <metadata>
  <rdf:RDF xmlns:dc="http://purl.org/dc/elements/1.1/" xmlns:cc="http://creativecommons.org/ns#" xmlns:rdf="http://www.w3.org/1999/02/22-rdf-syntax-ns#">
   <cc:Work>
    <dc:type rdf:resource="http://purl.org/dc/dcmitype/StillImage"/>
    <dc:date>2023-09-23T02:25:32.251663</dc:date>
    <dc:format>image/svg+xml</dc:format>
    <dc:creator>
     <cc:Agent>
      <dc:title>Matplotlib v3.7.3, https://matplotlib.org/</dc:title>
     </cc:Agent>
    </dc:creator>
   </cc:Work>
  </rdf:RDF>
 </metadata>
 <defs>
  <style type="text/css">*{stroke-linejoin: round; stroke-linecap: butt}</style>
 </defs>
 <g id="figure_1">
  <g id="patch_1">
   <path d="M 0 345.6 
L 460.8 345.6 
L 460.8 0 
L 0 0 
z
" style="fill: #ffffff"/>
  </g>
  <g id="axes_1">
   <g id="patch_2">
    <path d="M 57.6 307.584 
L 414.72 307.584 
L 414.72 41.472 
L 57.6 41.472 
z
" style="fill: #ffffff"/>
   </g>
   <g id="patch_3">
    <path d="M 68.76 307.584 
L 91.08 307.584 
L 91.08 277.1712 
L 68.76 277.1712 
z
" clip-path="url(#p7d1e6b30d6)" style="fill: #1f77b4"/>
   </g>
   <g id="patch_4">
    <path d="M 113.4 307.584 
L 135.72 307.584 
L 135.72 277.1712 
L 113.4 277.1712 
z
" clip-path="url(#p7d1e6b30d6)" style="fill: #1f77b4"/>
   </g>
   <g id="patch_5">
    <path d="M 158.04 307.584 
L 180.36 307.584 
L 180.36 273.11616 
L 158.04 273.11616 
z
" clip-path="url(#p7d1e6b30d6)" style="fill: #1f77b4"/>
   </g>
   <g id="patch_6">
    <path d="M 202.68 307.584 
L 225 307.584 
L 225 277.1712 
L 202.68 277.1712 
z
" clip-path="url(#p7d1e6b30d6)" style="fill: #1f77b4"/>
   </g>
   <g id="patch_7">
    <path d="M 247.32 307.584 
L 269.64 307.584 
L 269.64 273.87648 
L 247.32 273.87648 
z
" clip-path="url(#p7d1e6b30d6)" style="fill: #1f77b4"/>
   </g>
   <g id="patch_8">
    <path d="M 291.96 307.584 
L 314.28 307.584 
L 314.28 275.904 
L 291.96 275.904 
z
" clip-path="url(#p7d1e6b30d6)" style="fill: #1f77b4"/>
   </g>
   <g id="patch_9">
    <path d="M 336.6 307.584 
L 358.92 307.584 
L 358.92 277.67808 
L 336.6 277.67808 
z
" clip-path="url(#p7d1e6b30d6)" style="fill: #1f77b4"/>
   </g>
   <g id="patch_10">
    <path d="M 381.24 307.584 
L 403.56 307.584 
L 403.56 275.14368 
L 381.24 275.14368 
z
" clip-path="url(#p7d1e6b30d6)" style="fill: #1f77b4"/>
   </g>
   <g id="patch_11">
    <path d="M 68.76 277.1712 
L 91.08 277.1712 
L 91.08 249.2928 
L 68.76 249.2928 
z
" clip-path="url(#p7d1e6b30d6)" style="fill: #ff7f0e"/>
   </g>
   <g id="patch_12">
    <path d="M 113.4 277.1712 
L 135.72 277.1712 
L 135.72 249.54624 
L 113.4 249.54624 
z
" clip-path="url(#p7d1e6b30d6)" style="fill: #ff7f0e"/>
   </g>
   <g id="patch_13">
    <path d="M 158.04 273.11616 
L 180.36 273.11616 
L 180.36 238.64832 
L 158.04 238.64832 
z
" clip-path="url(#p7d1e6b30d6)" style="fill: #ff7f0e"/>
   </g>
   <g id="patch_14">
    <path d="M 202.68 277.1712 
L 225 277.1712 
L 225 245.74464 
L 202.68 245.74464 
z
" clip-path="url(#p7d1e6b30d6)" style="fill: #ff7f0e"/>
   </g>
   <g id="patch_15">
    <path d="M 247.32 273.87648 
L 269.64 273.87648 
L 269.64 238.90176 
L 247.32 238.90176 
z
" clip-path="url(#p7d1e6b30d6)" style="fill: #ff7f0e"/>
   </g>
   <g id="patch_16">
    <path d="M 291.96 275.904 
L 314.28 275.904 
L 314.28 248.27904 
L 291.96 248.27904 
z
" clip-path="url(#p7d1e6b30d6)" style="fill: #ff7f0e"/>
   </g>
   <g id="patch_17">
    <path d="M 336.6 277.67808 
L 358.92 277.67808 
L 358.92 244.47744 
L 336.6 244.47744 
z
" clip-path="url(#p7d1e6b30d6)" style="fill: #ff7f0e"/>
   </g>
   <g id="patch_18">
    <path d="M 381.24 275.14368 
L 403.56 275.14368 
L 403.56 238.90176 
L 381.24 238.90176 
z
" clip-path="url(#p7d1e6b30d6)" style="fill: #ff7f0e"/>
   </g>
   <g id="patch_19">
    <path d="M 68.76 249.2928 
L 91.08 249.2928 
L 91.08 218.37312 
L 68.76 218.37312 
z
" clip-path="url(#p7d1e6b30d6)" style="fill: #2ca02c"/>
   </g>
   <g id="patch_20">
    <path d="M 113.4 249.54624 
L 135.72 249.54624 
L 135.72 215.83872 
L 113.4 215.83872 
z
" clip-path="url(#p7d1e6b30d6)" style="fill: #2ca02c"/>
   </g>
   <g id="patch_21">
    <path d="M 158.04 238.64832 
L 180.36 238.64832 
L 180.36 209.50272 
L 158.04 209.50272 
z
" clip-path="url(#p7d1e6b30d6)" style="fill: #2ca02c"/>
   </g>
   <g id="patch_22">
    <path d="M 202.68 245.74464 
L 225 245.74464 
L 225 213.30432 
L 202.68 213.30432 
z
" clip-path="url(#p7d1e6b30d6)" style="fill: #2ca02c"/>
   </g>
   <g id="patch_23">
    <path d="M 247.32 238.90176 
L 269.64 238.90176 
L 269.64 207.98208 
L 247.32 207.98208 
z
" clip-path="url(#p7d1e6b30d6)" style="fill: #2ca02c"/>
   </g>
   <g id="patch_24">
    <path d="M 291.96 248.27904 
L 314.28 248.27904 
L 314.28 218.88 
L 291.96 218.88 
z
" clip-path="url(#p7d1e6b30d6)" style="fill: #2ca02c"/>
   </g>
   <g id="patch_25">
    <path d="M 336.6 244.47744 
L 358.92 244.47744 
L 358.92 211.78368 
L 336.6 211.78368 
z
" clip-path="url(#p7d1e6b30d6)" style="fill: #2ca02c"/>
   </g>
   <g id="patch_26">
    <path d="M 381.24 238.90176 
L 403.56 238.90176 
L 403.56 204.68736 
L 381.24 204.68736 
z
" clip-path="url(#p7d1e6b30d6)" style="fill: #2ca02c"/>
   </g>
   <g id="patch_27">
    <path d="M 68.76 218.37312 
L 91.08 218.37312 
L 91.08 185.67936 
L 68.76 185.67936 
z
" clip-path="url(#p7d1e6b30d6)" style="fill: #d62728"/>
   </g>
   <g id="patch_28">
    <path d="M 113.4 215.83872 
L 135.72 215.83872 
L 135.72 180.10368 
L 113.4 180.10368 
z
" clip-path="url(#p7d1e6b30d6)" style="fill: #d62728"/>
   </g>
   <g id="patch_29">
    <path d="M 158.04 209.50272 
L 180.36 209.50272 
L 180.36 177.56928 
L 158.04 177.56928 
z
" clip-path="url(#p7d1e6b30d6)" style="fill: #d62728"/>
   </g>
   <g id="patch_30">
    <path d="M 202.68 213.30432 
L 225 213.30432 
L 225 185.67936 
L 202.68 185.67936 
z
" clip-path="url(#p7d1e6b30d6)" style="fill: #d62728"/>
   </g>
   <g id="patch_31">
    <path d="M 247.32 207.98208 
L 269.64 207.98208 
L 269.64 180.864 
L 247.32 180.864 
z
" clip-path="url(#p7d1e6b30d6)" style="fill: #d62728"/>
   </g>
   <g id="patch_32">
    <path d="M 291.96 218.88 
L 314.28 218.88 
L 314.28 188.97408 
L 291.96 188.97408 
z
" clip-path="url(#p7d1e6b30d6)" style="fill: #d62728"/>
   </g>
   <g id="patch_33">
    <path d="M 336.6 211.78368 
L 358.92 211.78368 
L 358.92 175.7952 
L 336.6 175.7952 
z
" clip-path="url(#p7d1e6b30d6)" style="fill: #d62728"/>
   </g>
   <g id="patch_34">
    <path d="M 381.24 204.68736 
L 403.56 204.68736 
L 403.56 172.24704 
L 381.24 172.24704 
z
" clip-path="url(#p7d1e6b30d6)" style="fill: #d62728"/>
   </g>
   <g id="patch_35">
    <path d="M 68.76 185.67936 
L 91.08 185.67936 
L 91.08 149.69088 
L 68.76 149.69088 
z
" clip-path="url(#p7d1e6b30d6)" style="fill: #9467bd"/>
   </g>
   <g id="patch_36">
    <path d="M 113.4 180.10368 
L 135.72 180.10368 
L 135.72 148.42368 
L 113.4 148.42368 
z
" clip-path="url(#p7d1e6b30d6)" style="fill: #9467bd"/>
   </g>
   <g id="patch_37">
    <path d="M 158.04 177.56928 
L 180.36 177.56928 
L 180.36 146.90304 
L 158.04 146.90304 
z
" clip-path="url(#p7d1e6b30d6)" style="fill: #9467bd"/>
   </g>
   <g id="patch_38">
    <path d="M 202.68 185.67936 
L 225 185.67936 
L 225 155.77344 
L 202.68 155.77344 
z
" clip-path="url(#p7d1e6b30d6)" style="fill: #9467bd"/>
   </g>
   <g id="patch_39">
    <path d="M 247.32 180.864 
L 269.64 180.864 
L 269.64 147.66336 
L 247.32 147.66336 
z
" clip-path="url(#p7d1e6b30d6)" style="fill: #9467bd"/>
   </g>
   <g id="patch_40">
    <path d="M 291.96 188.97408 
L 314.28 188.97408 
L 314.28 154.50624 
L 291.96 154.50624 
z
" clip-path="url(#p7d1e6b30d6)" style="fill: #9467bd"/>
   </g>
   <g id="patch_41">
    <path d="M 336.6 175.7952 
L 358.92 175.7952 
L 358.92 146.90304 
L 336.6 146.90304 
z
" clip-path="url(#p7d1e6b30d6)" style="fill: #9467bd"/>
   </g>
   <g id="patch_42">
    <path d="M 381.24 172.24704 
L 403.56 172.24704 
L 403.56 143.60832 
L 381.24 143.60832 
z
" clip-path="url(#p7d1e6b30d6)" style="fill: #9467bd"/>
   </g>
   <g id="patch_43">
    <path d="M 68.76 149.69088 
L 91.08 149.69088 
L 91.08 120.0384 
L 68.76 120.0384 
z
" clip-path="url(#p7d1e6b30d6)" style="fill: #8c564b"/>
   </g>
   <g id="patch_44">
    <path d="M 113.4 148.42368 
L 135.72 148.42368 
L 135.72 118.01088 
L 113.4 118.01088 
z
" clip-path="url(#p7d1e6b30d6)" style="fill: #8c564b"/>
   </g>
   <g id="patch_45">
    <path d="M 158.04 146.90304 
L 180.36 146.90304 
L 180.36 110.66112 
L 158.04 110.66112 
z
" clip-path="url(#p7d1e6b30d6)" style="fill: #8c564b"/>
   </g>
   <g id="patch_46">
    <path d="M 202.68 155.77344 
L 225 155.77344 
L 225 124.34688 
L 202.68 124.34688 
z
" clip-path="url(#p7d1e6b30d6)" style="fill: #8c564b"/>
   </g>
   <g id="patch_47">
    <path d="M 247.32 147.66336 
L 269.64 147.66336 
L 269.64 114.71616 
L 247.32 114.71616 
z
" clip-path="url(#p7d1e6b30d6)" style="fill: #8c564b"/>
   </g>
   <g id="patch_48">
    <path d="M 291.96 154.50624 
L 314.28 154.50624 
L 314.28 120.79872 
L 291.96 120.79872 
z
" clip-path="url(#p7d1e6b30d6)" style="fill: #8c564b"/>
   </g>
   <g id="patch_49">
    <path d="M 336.6 146.90304 
L 358.92 146.90304 
L 358.92 114.46272 
L 336.6 114.46272 
z
" clip-path="url(#p7d1e6b30d6)" style="fill: #8c564b"/>
   </g>
   <g id="patch_50">
    <path d="M 381.24 143.60832 
L 403.56 143.60832 
L 403.56 116.99712 
L 381.24 116.99712 
z
" clip-path="url(#p7d1e6b30d6)" style="fill: #8c564b"/>
   </g>
   <g id="patch_51">
    <path d="M 68.76 120.0384 
L 91.08 120.0384 
L 91.08 88.3584 
L 68.76 88.3584 
z
" clip-path="url(#p7d1e6b30d6)" style="fill: #e377c2"/>
   </g>
   <g id="patch_52">
    <path d="M 113.4 118.01088 
L 135.72 118.01088 
L 135.72 88.10496 
L 113.4 88.10496 
z
" clip-path="url(#p7d1e6b30d6)" style="fill: #e377c2"/>
   </g>
   <g id="patch_53">
    <path d="M 158.04 110.66112 
L 180.36 110.66112 
L 180.36 79.74144 
L 158.04 79.74144 
z
" clip-path="url(#p7d1e6b30d6)" style="fill: #e377c2"/>
   </g>
   <g id="patch_54">
    <path d="M 202.68 124.34688 
L 225 124.34688 
L 225 90.38592 
L 202.68 90.38592 
z
" clip-path="url(#p7d1e6b30d6)" style="fill: #e377c2"/>
   </g>
   <g id="patch_55">
    <path d="M 247.32 114.71616 
L 269.64 114.71616 
L 269.64 84.04992 
L 247.32 84.04992 
z
" clip-path="url(#p7d1e6b30d6)" style="fill: #e377c2"/>
   </g>
   <g id="patch_56">
    <path d="M 291.96 120.79872 
L 314.28 120.79872 
L 314.28 85.31712 
L 291.96 85.31712 
z
" clip-path="url(#p7d1e6b30d6)" style="fill: #e377c2"/>
   </g>
   <g id="patch_57">
    <path d="M 336.6 114.46272 
L 358.92 114.46272 
L 358.92 85.57056 
L 336.6 85.57056 
z
" clip-path="url(#p7d1e6b30d6)" style="fill: #e377c2"/>
   </g>
   <g id="patch_58">
    <path d="M 381.24 116.99712 
L 403.56 116.99712 
L 403.56 85.06368 
L 381.24 85.06368 
z
" clip-path="url(#p7d1e6b30d6)" style="fill: #e377c2"/>
   </g>
   <g id="patch_59">
    <path d="M 68.76 88.3584 
L 91.08 88.3584 
L 91.08 54.144 
L 68.76 54.144 
z
" clip-path="url(#p7d1e6b30d6)" style="fill: #7f7f7f"/>
   </g>
   <g id="patch_60">
    <path d="M 113.4 88.10496 
L 135.72 88.10496 
L 135.72 54.144 
L 113.4 54.144 
z
" clip-path="url(#p7d1e6b30d6)" style="fill: #7f7f7f"/>
   </g>
   <g id="patch_61">
    <path d="M 158.04 79.74144 
L 180.36 79.74144 
L 180.36 54.144 
L 158.04 54.144 
z
" clip-path="url(#p7d1e6b30d6)" style="fill: #7f7f7f"/>
   </g>
   <g id="patch_62">
    <path d="M 202.68 90.38592 
L 225 90.38592 
L 225 54.144 
L 202.68 54.144 
z
" clip-path="url(#p7d1e6b30d6)" style="fill: #7f7f7f"/>
   </g>
   <g id="patch_63">
    <path d="M 247.32 84.04992 
L 269.64 84.04992 
L 269.64 54.144 
L 247.32 54.144 
z
" clip-path="url(#p7d1e6b30d6)" style="fill: #7f7f7f"/>
   </g>
   <g id="patch_64">
    <path d="M 291.96 85.31712 
L 314.28 85.31712 
L 314.28 54.144 
L 291.96 54.144 
z
" clip-path="url(#p7d1e6b30d6)" style="fill: #7f7f7f"/>
   </g>
   <g id="patch_65">
    <path d="M 336.6 85.57056 
L 358.92 85.57056 
L 358.92 54.144 
L 336.6 54.144 
z
" clip-path="url(#p7d1e6b30d6)" style="fill: #7f7f7f"/>
   </g>
   <g id="patch_66">
    <path d="M 381.24 85.06368 
L 403.56 85.06368 
L 403.56 54.144 
L 381.24 54.144 
z
" clip-path="url(#p7d1e6b30d6)" style="fill: #7f7f7f"/>
   </g>
   <g id="matplotlib.axis_1">
    <g id="xtick_1">
     <g id="line2d_1">
      <defs>
       <path id="me7737a4bdb" d="M 0 0 
L 0 3.5 
" style="stroke: #000000; stroke-width: 0.8"/>
      </defs>
      <g>
       <use xlink:href="#me7737a4bdb" x="79.92" y="307.584" style="stroke: #000000; stroke-width: 0.8"/>
      </g>
     </g>
     <g id="text_1">
      <!-- 0 -->
      <g transform="translate(82.679375 320.9465) rotate(-90) scale(0.1 -0.1)">
       <defs>
        <path id="DejaVuSans-30" d="M 2034 4250 
Q 1547 4250 1301 3770 
Q 1056 3291 1056 2328 
Q 1056 1369 1301 889 
Q 1547 409 2034 409 
Q 2525 409 2770 889 
Q 3016 1369 3016 2328 
Q 3016 3291 2770 3770 
Q 2525 4250 2034 4250 
z
M 2034 4750 
Q 2819 4750 3233 4129 
Q 3647 3509 3647 2328 
Q 3647 1150 3233 529 
Q 2819 -91 2034 -91 
Q 1250 -91 836 529 
Q 422 1150 422 2328 
Q 422 3509 836 4129 
Q 1250 4750 2034 4750 
z
" transform="scale(0.015625)"/>
       </defs>
       <use xlink:href="#DejaVuSans-30"/>
      </g>
     </g>
    </g>
    <g id="xtick_2">
     <g id="line2d_2">
      <g>
       <use xlink:href="#me7737a4bdb" x="124.56" y="307.584" style="stroke: #000000; stroke-width: 0.8"/>
      </g>
     </g>
     <g id="text_2">
      <!-- 1 -->
      <g transform="translate(127.319375 320.9465) rotate(-90) scale(0.1 -0.1)">
       <defs>
        <path id="DejaVuSans-31" d="M 794 531 
L 1825 531 
L 1825 4091 
L 703 3866 
L 703 4441 
L 1819 4666 
L 2450 4666 
L 2450 531 
L 3481 531 
L 3481 0 
L 794 0 
L 794 531 
z
" transform="scale(0.015625)"/>
       </defs>
       <use xlink:href="#DejaVuSans-31"/>
      </g>
     </g>
    </g>
    <g id="xtick_3">
     <g id="line2d_3">
      <g>
       <use xlink:href="#me7737a4bdb" x="169.2" y="307.584" style="stroke: #000000; stroke-width: 0.8"/>
      </g>
     </g>
     <g id="text_3">
      <!-- 2 -->
      <g transform="translate(171.959375 320.9465) rotate(-90) scale(0.1 -0.1)">
       <defs>
        <path id="DejaVuSans-32" d="M 1228 531 
L 3431 531 
L 3431 0 
L 469 0 
L 469 531 
Q 828 903 1448 1529 
Q 2069 2156 2228 2338 
Q 2531 2678 2651 2914 
Q 2772 3150 2772 3378 
Q 2772 3750 2511 3984 
Q 2250 4219 1831 4219 
Q 1534 4219 1204 4116 
Q 875 4013 500 3803 
L 500 4441 
Q 881 4594 1212 4672 
Q 1544 4750 1819 4750 
Q 2544 4750 2975 4387 
Q 3406 4025 3406 3419 
Q 3406 3131 3298 2873 
Q 3191 2616 2906 2266 
Q 2828 2175 2409 1742 
Q 1991 1309 1228 531 
z
" transform="scale(0.015625)"/>
       </defs>
       <use xlink:href="#DejaVuSans-32"/>
      </g>
     </g>
    </g>
    <g id="xtick_4">
     <g id="line2d_4">
      <g>
       <use xlink:href="#me7737a4bdb" x="213.84" y="307.584" style="stroke: #000000; stroke-width: 0.8"/>
      </g>
     </g>
     <g id="text_4">
      <!-- 3 -->
      <g transform="translate(216.599375 320.9465) rotate(-90) scale(0.1 -0.1)">
       <defs>
        <path id="DejaVuSans-33" d="M 2597 2516 
Q 3050 2419 3304 2112 
Q 3559 1806 3559 1356 
Q 3559 666 3084 287 
Q 2609 -91 1734 -91 
Q 1441 -91 1130 -33 
Q 819 25 488 141 
L 488 750 
Q 750 597 1062 519 
Q 1375 441 1716 441 
Q 2309 441 2620 675 
Q 2931 909 2931 1356 
Q 2931 1769 2642 2001 
Q 2353 2234 1838 2234 
L 1294 2234 
L 1294 2753 
L 1863 2753 
Q 2328 2753 2575 2939 
Q 2822 3125 2822 3475 
Q 2822 3834 2567 4026 
Q 2313 4219 1838 4219 
Q 1578 4219 1281 4162 
Q 984 4106 628 3988 
L 628 4550 
Q 988 4650 1302 4700 
Q 1616 4750 1894 4750 
Q 2613 4750 3031 4423 
Q 3450 4097 3450 3541 
Q 3450 3153 3228 2886 
Q 3006 2619 2597 2516 
z
" transform="scale(0.015625)"/>
       </defs>
       <use xlink:href="#DejaVuSans-33"/>
      </g>
     </g>
    </g>
    <g id="xtick_5">
     <g id="line2d_5">
      <g>
       <use xlink:href="#me7737a4bdb" x="258.48" y="307.584" style="stroke: #000000; stroke-width: 0.8"/>
      </g>
     </g>
     <g id="text_5">
      <!-- 4 -->
      <g transform="translate(261.239375 320.9465) rotate(-90) scale(0.1 -0.1)">
       <defs>
        <path id="DejaVuSans-34" d="M 2419 4116 
L 825 1625 
L 2419 1625 
L 2419 4116 
z
M 2253 4666 
L 3047 4666 
L 3047 1625 
L 3713 1625 
L 3713 1100 
L 3047 1100 
L 3047 0 
L 2419 0 
L 2419 1100 
L 313 1100 
L 313 1709 
L 2253 4666 
z
" transform="scale(0.015625)"/>
       </defs>
       <use xlink:href="#DejaVuSans-34"/>
      </g>
     </g>
    </g>
    <g id="xtick_6">
     <g id="line2d_6">
      <g>
       <use xlink:href="#me7737a4bdb" x="303.12" y="307.584" style="stroke: #000000; stroke-width: 0.8"/>
      </g>
     </g>
     <g id="text_6">
      <!-- 5 -->
      <g transform="translate(305.879375 320.9465) rotate(-90) scale(0.1 -0.1)">
       <defs>
        <path id="DejaVuSans-35" d="M 691 4666 
L 3169 4666 
L 3169 4134 
L 1269 4134 
L 1269 2991 
Q 1406 3038 1543 3061 
Q 1681 3084 1819 3084 
Q 2600 3084 3056 2656 
Q 3513 2228 3513 1497 
Q 3513 744 3044 326 
Q 2575 -91 1722 -91 
Q 1428 -91 1123 -41 
Q 819 9 494 109 
L 494 744 
Q 775 591 1075 516 
Q 1375 441 1709 441 
Q 2250 441 2565 725 
Q 2881 1009 2881 1497 
Q 2881 1984 2565 2268 
Q 2250 2553 1709 2553 
Q 1456 2553 1204 2497 
Q 953 2441 691 2322 
L 691 4666 
z
" transform="scale(0.015625)"/>
       </defs>
       <use xlink:href="#DejaVuSans-35"/>
      </g>
     </g>
    </g>
    <g id="xtick_7">
     <g id="line2d_7">
      <g>
       <use xlink:href="#me7737a4bdb" x="347.76" y="307.584" style="stroke: #000000; stroke-width: 0.8"/>
      </g>
     </g>
     <g id="text_7">
      <!-- 6 -->
      <g transform="translate(350.519375 320.9465) rotate(-90) scale(0.1 -0.1)">
       <defs>
        <path id="DejaVuSans-36" d="M 2113 2584 
Q 1688 2584 1439 2293 
Q 1191 2003 1191 1497 
Q 1191 994 1439 701 
Q 1688 409 2113 409 
Q 2538 409 2786 701 
Q 3034 994 3034 1497 
Q 3034 2003 2786 2293 
Q 2538 2584 2113 2584 
z
M 3366 4563 
L 3366 3988 
Q 3128 4100 2886 4159 
Q 2644 4219 2406 4219 
Q 1781 4219 1451 3797 
Q 1122 3375 1075 2522 
Q 1259 2794 1537 2939 
Q 1816 3084 2150 3084 
Q 2853 3084 3261 2657 
Q 3669 2231 3669 1497 
Q 3669 778 3244 343 
Q 2819 -91 2113 -91 
Q 1303 -91 875 529 
Q 447 1150 447 2328 
Q 447 3434 972 4092 
Q 1497 4750 2381 4750 
Q 2619 4750 2861 4703 
Q 3103 4656 3366 4563 
z
" transform="scale(0.015625)"/>
       </defs>
       <use xlink:href="#DejaVuSans-36"/>
      </g>
     </g>
    </g>
    <g id="xtick_8">
     <g id="line2d_8">
      <g>
       <use xlink:href="#me7737a4bdb" x="392.4" y="307.584" style="stroke: #000000; stroke-width: 0.8"/>
      </g>
     </g>
     <g id="text_8">
      <!-- 7 -->
      <g transform="translate(395.159375 320.9465) rotate(-90) scale(0.1 -0.1)">
       <defs>
        <path id="DejaVuSans-37" d="M 525 4666 
L 3525 4666 
L 3525 4397 
L 1831 0 
L 1172 0 
L 2766 4134 
L 525 4134 
L 525 4666 
z
" transform="scale(0.015625)"/>
       </defs>
       <use xlink:href="#DejaVuSans-37"/>
      </g>
     </g>
    </g>
   </g>
   <g id="matplotlib.axis_2">
    <g id="ytick_1">
     <g id="line2d_9">
      <defs>
       <path id="mc46fe1dc64" d="M 0 0 
L -3.5 0 
" style="stroke: #000000; stroke-width: 0.8"/>
      </defs>
      <g>
       <use xlink:href="#mc46fe1dc64" x="57.6" y="307.584" style="stroke: #000000; stroke-width: 0.8"/>
      </g>
     </g>
     <g id="text_9">
      <!-- 0 -->
      <g transform="translate(44.2375 311.383219) scale(0.1 -0.1)">
       <use xlink:href="#DejaVuSans-30"/>
      </g>
     </g>
    </g>
    <g id="ytick_2">
     <g id="line2d_10">
      <g>
       <use xlink:href="#mc46fe1dc64" x="57.6" y="256.896" style="stroke: #000000; stroke-width: 0.8"/>
      </g>
     </g>
     <g id="text_10">
      <!-- 200 -->
      <g transform="translate(31.5125 260.695219) scale(0.1 -0.1)">
       <use xlink:href="#DejaVuSans-32"/>
       <use xlink:href="#DejaVuSans-30" x="63.623047"/>
       <use xlink:href="#DejaVuSans-30" x="127.246094"/>
      </g>
     </g>
    </g>
    <g id="ytick_3">
     <g id="line2d_11">
      <g>
       <use xlink:href="#mc46fe1dc64" x="57.6" y="206.208" style="stroke: #000000; stroke-width: 0.8"/>
      </g>
     </g>
     <g id="text_11">
      <!-- 400 -->
      <g transform="translate(31.5125 210.007219) scale(0.1 -0.1)">
       <use xlink:href="#DejaVuSans-34"/>
       <use xlink:href="#DejaVuSans-30" x="63.623047"/>
       <use xlink:href="#DejaVuSans-30" x="127.246094"/>
      </g>
     </g>
    </g>
    <g id="ytick_4">
     <g id="line2d_12">
      <g>
       <use xlink:href="#mc46fe1dc64" x="57.6" y="155.52" style="stroke: #000000; stroke-width: 0.8"/>
      </g>
     </g>
     <g id="text_12">
      <!-- 600 -->
      <g transform="translate(31.5125 159.319219) scale(0.1 -0.1)">
       <use xlink:href="#DejaVuSans-36"/>
       <use xlink:href="#DejaVuSans-30" x="63.623047"/>
       <use xlink:href="#DejaVuSans-30" x="127.246094"/>
      </g>
     </g>
    </g>
    <g id="ytick_5">
     <g id="line2d_13">
      <g>
       <use xlink:href="#mc46fe1dc64" x="57.6" y="104.832" style="stroke: #000000; stroke-width: 0.8"/>
      </g>
     </g>
     <g id="text_13">
      <!-- 800 -->
      <g transform="translate(31.5125 108.631219) scale(0.1 -0.1)">
       <defs>
        <path id="DejaVuSans-38" d="M 2034 2216 
Q 1584 2216 1326 1975 
Q 1069 1734 1069 1313 
Q 1069 891 1326 650 
Q 1584 409 2034 409 
Q 2484 409 2743 651 
Q 3003 894 3003 1313 
Q 3003 1734 2745 1975 
Q 2488 2216 2034 2216 
z
M 1403 2484 
Q 997 2584 770 2862 
Q 544 3141 544 3541 
Q 544 4100 942 4425 
Q 1341 4750 2034 4750 
Q 2731 4750 3128 4425 
Q 3525 4100 3525 3541 
Q 3525 3141 3298 2862 
Q 3072 2584 2669 2484 
Q 3125 2378 3379 2068 
Q 3634 1759 3634 1313 
Q 3634 634 3220 271 
Q 2806 -91 2034 -91 
Q 1263 -91 848 271 
Q 434 634 434 1313 
Q 434 1759 690 2068 
Q 947 2378 1403 2484 
z
M 1172 3481 
Q 1172 3119 1398 2916 
Q 1625 2713 2034 2713 
Q 2441 2713 2670 2916 
Q 2900 3119 2900 3481 
Q 2900 3844 2670 4047 
Q 2441 4250 2034 4250 
Q 1625 4250 1398 4047 
Q 1172 3844 1172 3481 
z
" transform="scale(0.015625)"/>
       </defs>
       <use xlink:href="#DejaVuSans-38"/>
       <use xlink:href="#DejaVuSans-30" x="63.623047"/>
       <use xlink:href="#DejaVuSans-30" x="127.246094"/>
      </g>
     </g>
    </g>
    <g id="ytick_6">
     <g id="line2d_14">
      <g>
       <use xlink:href="#mc46fe1dc64" x="57.6" y="54.144" style="stroke: #000000; stroke-width: 0.8"/>
      </g>
     </g>
     <g id="text_14">
      <!-- 1000 -->
      <g transform="translate(25.15 57.943219) scale(0.1 -0.1)">
       <use xlink:href="#DejaVuSans-31"/>
       <use xlink:href="#DejaVuSans-30" x="63.623047"/>
       <use xlink:href="#DejaVuSans-30" x="127.246094"/>
       <use xlink:href="#DejaVuSans-30" x="190.869141"/>
      </g>
     </g>
    </g>
   </g>
   <g id="patch_67">
    <path d="M 57.6 307.584 
L 57.6 41.472 
" style="fill: none; stroke: #000000; stroke-width: 0.8; stroke-linejoin: miter; stroke-linecap: square"/>
   </g>
   <g id="patch_68">
    <path d="M 414.72 307.584 
L 414.72 41.472 
" style="fill: none; stroke: #000000; stroke-width: 0.8; stroke-linejoin: miter; stroke-linecap: square"/>
   </g>
   <g id="patch_69">
    <path d="M 57.6 307.584 
L 414.72 307.584 
" style="fill: none; stroke: #000000; stroke-width: 0.8; stroke-linejoin: miter; stroke-linecap: square"/>
   </g>
   <g id="patch_70">
    <path d="M 57.6 41.472 
L 414.72 41.472 
" style="fill: none; stroke: #000000; stroke-width: 0.8; stroke-linejoin: miter; stroke-linecap: square"/>
   </g>
   <g id="legend_1">
    <g id="patch_71">
     <path d="M 369.3575 166.897 
L 407.72 166.897 
Q 409.72 166.897 409.72 164.897 
L 409.72 48.472 
Q 409.72 46.472 407.72 46.472 
L 369.3575 46.472 
Q 367.3575 46.472 367.3575 48.472 
L 367.3575 164.897 
Q 367.3575 166.897 369.3575 166.897 
z
" style="fill: #ffffff; opacity: 0.8; stroke: #cccccc; stroke-linejoin: miter"/>
    </g>
    <g id="patch_72">
     <path d="M 371.3575 58.070438 
L 391.3575 58.070438 
L 391.3575 51.070438 
L 371.3575 51.070438 
z
" style="fill: #1f77b4"/>
    </g>
    <g id="text_15">
     <!-- 0 -->
     <g transform="translate(399.3575 58.070438) scale(0.1 -0.1)">
      <use xlink:href="#DejaVuSans-30"/>
     </g>
    </g>
    <g id="patch_73">
     <path d="M 371.3575 72.748563 
L 391.3575 72.748563 
L 391.3575 65.748563 
L 371.3575 65.748563 
z
" style="fill: #ff7f0e"/>
    </g>
    <g id="text_16">
     <!-- 1 -->
     <g transform="translate(399.3575 72.748563) scale(0.1 -0.1)">
      <use xlink:href="#DejaVuSans-31"/>
     </g>
    </g>
    <g id="patch_74">
     <path d="M 371.3575 87.426688 
L 391.3575 87.426688 
L 391.3575 80.426688 
L 371.3575 80.426688 
z
" style="fill: #2ca02c"/>
    </g>
    <g id="text_17">
     <!-- 2 -->
     <g transform="translate(399.3575 87.426688) scale(0.1 -0.1)">
      <use xlink:href="#DejaVuSans-32"/>
     </g>
    </g>
    <g id="patch_75">
     <path d="M 371.3575 102.104813 
L 391.3575 102.104813 
L 391.3575 95.104813 
L 371.3575 95.104813 
z
" style="fill: #d62728"/>
    </g>
    <g id="text_18">
     <!-- 3 -->
     <g transform="translate(399.3575 102.104813) scale(0.1 -0.1)">
      <use xlink:href="#DejaVuSans-33"/>
     </g>
    </g>
    <g id="patch_76">
     <path d="M 371.3575 116.782938 
L 391.3575 116.782938 
L 391.3575 109.782938 
L 371.3575 109.782938 
z
" style="fill: #9467bd"/>
    </g>
    <g id="text_19">
     <!-- 4 -->
     <g transform="translate(399.3575 116.782938) scale(0.1 -0.1)">
      <use xlink:href="#DejaVuSans-34"/>
     </g>
    </g>
    <g id="patch_77">
     <path d="M 371.3575 131.461063 
L 391.3575 131.461063 
L 391.3575 124.461063 
L 371.3575 124.461063 
z
" style="fill: #8c564b"/>
    </g>
    <g id="text_20">
     <!-- 5 -->
     <g transform="translate(399.3575 131.461063) scale(0.1 -0.1)">
      <use xlink:href="#DejaVuSans-35"/>
     </g>
    </g>
    <g id="patch_78">
     <path d="M 371.3575 146.139188 
L 391.3575 146.139188 
L 391.3575 139.139188 
L 371.3575 139.139188 
z
" style="fill: #e377c2"/>
    </g>
    <g id="text_21">
     <!-- 6 -->
     <g transform="translate(399.3575 146.139188) scale(0.1 -0.1)">
      <use xlink:href="#DejaVuSans-36"/>
     </g>
    </g>
    <g id="patch_79">
     <path d="M 371.3575 160.817313 
L 391.3575 160.817313 
L 391.3575 153.817313 
L 371.3575 153.817313 
z
" style="fill: #7f7f7f"/>
    </g>
    <g id="text_22">
     <!-- 7 -->
     <g transform="translate(399.3575 160.817313) scale(0.1 -0.1)">
      <use xlink:href="#DejaVuSans-37"/>
     </g>
    </g>
   </g>
  </g>
 </g>
 <defs>
  <clipPath id="p7d1e6b30d6">
   <rect x="57.6" y="41.472" width="357.12" height="266.112"/>
  </clipPath>
 </defs>
</svg>
